# Blender 3.3.3
# www.blender.org
o Cube
v -1.000000 -1.000000 1.000000
v -1.000000 1.000000 1.000000
v -1.000000 -1.000000 -1.000000
v -1.000000 1.000000 -1.000000
v 1.000000 -1.000000 1.000000
v 1.000000 1.000000 1.000000
v 1.000000 -1.000000 -1.000000
v 1.000000 1.000000 -1.000000
vn -1.0000 -0.0000 -0.0000
vn -0.0000 -0.0000 -1.0000
vn 1.0000 -0.0000 -0.0000
vn -0.0000 -0.0000 1.0000
vn -0.0000 -1.0000 -0.0000
vn -0.0000 1.0000 -0.0000
vt 0.375000 0.000000
vt 0.375000 1.000000
vt 0.125000 0.750000
vt 0.625000 0.000000
vt 0.625000 1.000000
vt 0.875000 0.750000
vt 0.375000 0.250000
vt 0.125000 0.500000
vt 0.625000 0.250000
vt 0.875000 0.500000
vt 0.375000 0.750000
vt 0.625000 0.750000
vt 0.375000 0.500000
vt 0.625000 0.500000
s 0
f 1/1/1 2/4/1 4/9/1 3/7/1
f 3/7/2 4/9/2 8/14/2 7/13/2
f 7/13/3 8/14/3 6/12/3 5/11/3
f 5/11/4 6/12/4 2/5/4 1/2/4
f 3/8/5 7/13/5 5/11/5 1/3/5
f 8/14/6 4/10/6 2/6/6 6/12/6
o Circle
v 0.000000 0.000000 2.927254
v -0.195090 0.000000 2.946469
v -0.382683 0.000000 3.003375
v -0.555570 0.000000 3.095785
v -0.707107 0.000000 3.220147
v -0.831470 0.000000 3.371684
v -0.923880 0.000000 3.544571
v -0.980785 0.000000 3.732164
v -1.000000 0.000000 3.927254
v -0.980785 0.000000 4.122344
v -0.923880 0.000000 4.309937
v -0.831470 0.000000 4.482824
v -0.707107 0.000000 4.634361
v -0.555570 0.000000 4.758724
v -0.382683 0.000000 4.851134
v -0.195090 0.000000 4.908040
v 0.000000 0.000000 4.927254
v 0.195090 0.000000 4.908040
v 0.382683 0.000000 4.851134
v 0.555570 0.000000 4.758724
v 0.707107 0.000000 4.634361
v 0.831470 0.000000 4.482824
v 0.923880 0.000000 4.309937
v 0.980785 0.000000 4.122344
v 1.000000 0.000000 3.927254
v 0.980785 0.000000 3.732164
v 0.923880 0.000000 3.544571
v 0.831470 0.000000 3.371684
v 0.707107 0.000000 3.220147
v 0.555570 0.000000 3.095785
v 0.382683 0.000000 3.003375
v 0.195090 0.000000 2.946469
vn -0.0000 1.0000 -0.0000
vt 0.500000 1.000000
vt 0.402455 0.990393
vt 0.308658 0.961940
vt 0.222215 0.915735
vt 0.146447 0.853553
vt 0.084265 0.777785
vt 0.038060 0.691342
vt 0.009607 0.597545
vt 0.000000 0.500000
vt 0.009607 0.402455
vt 0.038060 0.308658
vt 0.084265 0.222215
vt 0.146447 0.146447
vt 0.222215 0.084265
vt 0.308658 0.038060
vt 0.402455 0.009607
vt 0.500000 0.000000
vt 0.597545 0.009607
vt 0.691342 0.038060
vt 0.777785 0.084265
vt 0.853553 0.146447
vt 0.915735 0.222215
vt 0.961940 0.308658
vt 0.990393 0.402455
vt 1.000000 0.500000
vt 0.990393 0.597545
vt 0.961940 0.691342
vt 0.915735 0.777785
vt 0.853553 0.853553
vt 0.777785 0.915735
vt 0.691342 0.961940
vt 0.597545 0.990393
s 0
f 9/15/7 10/16/7 11/17/7 12/18/7 13/19/7 14/20/7 15/21/7 16/22/7 17/23/7 18/24/7 19/25/7 20/26/7 21/27/7 22/28/7 23/29/7 24/30/7 25/31/7 26/32/7 27/33/7 28/34/7 29/35/7 30/36/7 31/37/7 32/38/7 33/39/7 34/40/7 35/41/7 36/42/7 37/43/7 38/44/7 39/45/7 40/46/7
o Concave_Ngon
v -6.102303 0.064924 2.579747
v -3.126457 0.064924 1.642126
v -6.062274 0.064924 -2.005454
v -2.101800 0.064924 -1.925019
v -5.222664 0.064924 -0.333333
v -5.222664 0.064924 0.333333
v -4.555997 0.064924 1.000000
v -3.889331 0.064924 1.000000
v -3.222664 0.064924 0.333333
v -3.222664 0.064924 -0.333333
v -3.889331 0.064924 -1.000000
v -4.555997 0.064924 -1.000000
v -6.988694 0.064924 2.203947
v -6.109056 0.064924 -0.042467
v -5.657956 0.064924 -0.109847
v -6.544348 0.064924 -0.485647
v -7.485426 0.064924 1.949220
v -6.605787 0.064924 -0.297194
v -6.143264 0.064924 3.320876
v -7.029656 0.064924 2.945076
v -3.877227 0.064924 -2.662117
v -4.543894 0.064924 -2.662117
v -4.502921 0.064924 2.164676
v -3.836254 0.064924 2.164676
v -2.807105 0.064924 2.520189
v -2.903312 0.064924 1.211397
vn -0.0000 1.0000 -0.0000
vt 0.000000 0.000000
vt 1.000000 0.000000
vt 0.000000 1.000000
vt 1.000000 1.000000
vt 0.000000 0.666667
vt 0.000000 0.333333
vt 0.333333 0.333333
vt 0.666667 0.000000
vt 1.000000 0.333333
vt 1.000000 0.666667
vt 0.666667 0.666667
vt 0.333333 1.000000
vt 0.000000 0.000000
vt 0.000000 0.333333
vt 0.000000 0.333333
vt 0.000000 0.333333
vt 0.000000 0.000000
vt 0.000000 0.333333
vt 0.000000 0.000000
vt 0.000000 0.000000
vt 0.666667 0.666667
vt 0.333333 1.000000
vt 0.333333 0.333333
vt 0.666667 0.000000
vt 1.000000 0.000000
vt 1.000000 0.333333
s 0
f 51/57/8 61/67/8 62/68/8 52/58/8 43/49/8 45/51/8 46/52/8 55/61/8 56/62/8 54/60/8 58/64/8 57/63/8 53/59/8 60/66/8 59/65/8 41/47/8 47/53/8 63/69/8 64/70/8 48/54/8 42/48/8 65/71/8 66/72/8 49/55/8 50/56/8 44/50/8
